<svg xmlns="http://www.w3.org/2000/svg" xmlns:xlink="http://www.w3.org/1999/xlink" width="250" zoomAndPan="magnify" viewBox="0 0 187.5 74.999997" height="100" preserveAspectRatio="xMidYMid meet" version="1.0"><defs><g/><clipPath id="debdf9015c"><path d="M 22 22 L 75 22 L 75 60.226562 L 22 60.226562 Z M 22 22 " clip-rule="nonzero"/></clipPath><clipPath id="c556221e77"><path d="M 27.109375 60.226562 L 72.621094 60.226562 C 72.621094 60.226562 74.519531 57.808594 74.765625 53.988281 C 75.113281 48.582031 74.011719 44.664062 74.011719 44.664062 C 73.152344 40.417969 71.25 38.363281 71.25 38.363281 C 71.25 38.363281 71.164062 38.277344 71.027344 38.128906 C 71.621094 37.683594 72.164062 37.140625 72.621094 36.511719 C 72.621094 36.511719 73.96875 33.179688 73.957031 32 C 73.945312 30.871094 72.621094 27.699219 72.621094 27.699219 C 71.992188 26.824219 71.164062 26.082031 70.167969 25.527344 C 66.542969 23.527344 61.976562 24.847656 59.980469 28.488281 C 59.777344 28.859375 59.589844 29.261719 59.449219 29.648438 C 59.269531 29.59375 59.109375 29.53125 58.941406 29.496094 C 50.890625 26.742188 42.871094 28.59375 42.871094 28.59375 C 42.871094 28.59375 42.808594 28.335938 42.765625 28.1875 C 41.617188 24.195312 37.453125 21.910156 33.484375 23.058594 C 29.5 24.207031 27.21875 28.378906 28.363281 32.359375 C 28.640625 33.328125 29.097656 34.191406 29.691406 34.9375 C 28.238281 35.839844 24.414062 38.863281 23.214844 46.101562 C 21.597656 55.734375 26.238281 59.597656 27.109375 60.226562 Z M 58.992188 53.5625 C 58.460938 54.933594 58.207031 54.382812 58.15625 53.507812 C 58.101562 52.648438 59.195312 53.039062 58.992188 53.5625 Z M 58.992188 53.5625 " clip-rule="nonzero"/></clipPath><linearGradient x1="247.74001" gradientTransform="matrix(0.106205, 0, 0, -0.106433, 22.533226, 44.959841)" y1="-143.423977" x2="247.74001" gradientUnits="userSpaceOnUse" y2="216.576029" id="b67df96ce0"><stop stop-opacity="1" stop-color="rgb(61.199951%, 81.599426%, 24.699402%)" offset="0"/><stop stop-opacity="1" stop-color="rgb(61.079407%, 81.536865%, 24.729919%)" offset="0.0078125"/><stop stop-opacity="1" stop-color="rgb(60.839844%, 81.413269%, 24.790955%)" offset="0.015625"/><stop stop-opacity="1" stop-color="rgb(60.598755%, 81.286621%, 24.853516%)" offset="0.0234375"/><stop stop-opacity="1" stop-color="rgb(60.357666%, 81.161499%, 24.916077%)" offset="0.03125"/><stop stop-opacity="1" stop-color="rgb(60.116577%, 81.036377%, 24.978638%)" offset="0.0390625"/><stop stop-opacity="1" stop-color="rgb(59.875488%, 80.911255%, 25.041199%)" offset="0.046875"/><stop stop-opacity="1" stop-color="rgb(59.634399%, 80.786133%, 25.102234%)" offset="0.0546875"/><stop stop-opacity="1" stop-color="rgb(59.393311%, 80.659485%, 25.164795%)" offset="0.0625"/><stop stop-opacity="1" stop-color="rgb(59.152222%, 80.534363%, 25.227356%)" offset="0.0703125"/><stop stop-opacity="1" stop-color="rgb(58.911133%, 80.409241%, 25.289917%)" offset="0.078125"/><stop stop-opacity="1" stop-color="rgb(58.668518%, 80.284119%, 25.352478%)" offset="0.0859375"/><stop stop-opacity="1" stop-color="rgb(58.427429%, 80.158997%, 25.415039%)" offset="0.09375"/><stop stop-opacity="1" stop-color="rgb(58.18634%, 80.032349%, 25.476074%)" offset="0.101562"/><stop stop-opacity="1" stop-color="rgb(57.945251%, 79.907227%, 25.538635%)" offset="0.109375"/><stop stop-opacity="1" stop-color="rgb(57.704163%, 79.782104%, 25.601196%)" offset="0.117188"/><stop stop-opacity="1" stop-color="rgb(57.463074%, 79.656982%, 25.663757%)" offset="0.125"/><stop stop-opacity="1" stop-color="rgb(57.221985%, 79.53186%, 25.726318%)" offset="0.132813"/><stop stop-opacity="1" stop-color="rgb(56.980896%, 79.405212%, 25.788879%)" offset="0.140625"/><stop stop-opacity="1" stop-color="rgb(56.739807%, 79.28009%, 25.849915%)" offset="0.148438"/><stop stop-opacity="1" stop-color="rgb(56.498718%, 79.154968%, 25.912476%)" offset="0.15625"/><stop stop-opacity="1" stop-color="rgb(56.256104%, 79.029846%, 25.975037%)" offset="0.164062"/><stop stop-opacity="1" stop-color="rgb(56.015015%, 78.904724%, 26.037598%)" offset="0.171875"/><stop stop-opacity="1" stop-color="rgb(55.773926%, 78.779602%, 26.100159%)" offset="0.179688"/><stop stop-opacity="1" stop-color="rgb(55.532837%, 78.652954%, 26.16272%)" offset="0.1875"/><stop stop-opacity="1" stop-color="rgb(55.291748%, 78.527832%, 26.223755%)" offset="0.195313"/><stop stop-opacity="1" stop-color="rgb(55.050659%, 78.40271%, 26.286316%)" offset="0.203125"/><stop stop-opacity="1" stop-color="rgb(54.80957%, 78.277588%, 26.348877%)" offset="0.210938"/><stop stop-opacity="1" stop-color="rgb(54.568481%, 78.152466%, 26.411438%)" offset="0.21875"/><stop stop-opacity="1" stop-color="rgb(54.327393%, 78.025818%, 26.473999%)" offset="0.226563"/><stop stop-opacity="1" stop-color="rgb(54.086304%, 77.900696%, 26.53656%)" offset="0.234375"/><stop stop-opacity="1" stop-color="rgb(53.843689%, 77.775574%, 26.597595%)" offset="0.242188"/><stop stop-opacity="1" stop-color="rgb(53.6026%, 77.650452%, 26.660156%)" offset="0.25"/><stop stop-opacity="1" stop-color="rgb(53.361511%, 77.52533%, 26.722717%)" offset="0.257813"/><stop stop-opacity="1" stop-color="rgb(53.120422%, 77.398682%, 26.785278%)" offset="0.265625"/><stop stop-opacity="1" stop-color="rgb(52.879333%, 77.27356%, 26.847839%)" offset="0.273438"/><stop stop-opacity="1" stop-color="rgb(52.638245%, 77.148438%, 26.9104%)" offset="0.28125"/><stop stop-opacity="1" stop-color="rgb(52.397156%, 77.023315%, 26.971436%)" offset="0.289063"/><stop stop-opacity="1" stop-color="rgb(52.156067%, 76.898193%, 27.033997%)" offset="0.296875"/><stop stop-opacity="1" stop-color="rgb(51.914978%, 76.771545%, 27.096558%)" offset="0.304688"/><stop stop-opacity="1" stop-color="rgb(51.673889%, 76.646423%, 27.159119%)" offset="0.3125"/><stop stop-opacity="1" stop-color="rgb(51.431274%, 76.521301%, 27.22168%)" offset="0.320313"/><stop stop-opacity="1" stop-color="rgb(51.190186%, 76.396179%, 27.284241%)" offset="0.328125"/><stop stop-opacity="1" stop-color="rgb(50.949097%, 76.271057%, 27.345276%)" offset="0.335938"/><stop stop-opacity="1" stop-color="rgb(50.708008%, 76.144409%, 27.407837%)" offset="0.34375"/><stop stop-opacity="1" stop-color="rgb(50.466919%, 76.019287%, 27.470398%)" offset="0.351563"/><stop stop-opacity="1" stop-color="rgb(50.22583%, 75.894165%, 27.532959%)" offset="0.359375"/><stop stop-opacity="1" stop-color="rgb(49.984741%, 75.769043%, 27.59552%)" offset="0.367188"/><stop stop-opacity="1" stop-color="rgb(49.743652%, 75.643921%, 27.658081%)" offset="0.375"/><stop stop-opacity="1" stop-color="rgb(49.502563%, 75.518799%, 27.719116%)" offset="0.382813"/><stop stop-opacity="1" stop-color="rgb(49.259949%, 75.392151%, 27.781677%)" offset="0.390625"/><stop stop-opacity="1" stop-color="rgb(49.01886%, 75.267029%, 27.844238%)" offset="0.398438"/><stop stop-opacity="1" stop-color="rgb(48.777771%, 75.141907%, 27.906799%)" offset="0.40625"/><stop stop-opacity="1" stop-color="rgb(48.536682%, 75.016785%, 27.96936%)" offset="0.414063"/><stop stop-opacity="1" stop-color="rgb(48.295593%, 74.891663%, 28.031921%)" offset="0.421875"/><stop stop-opacity="1" stop-color="rgb(48.054504%, 74.765015%, 28.092957%)" offset="0.429688"/><stop stop-opacity="1" stop-color="rgb(47.813416%, 74.639893%, 28.155518%)" offset="0.4375"/><stop stop-opacity="1" stop-color="rgb(47.572327%, 74.514771%, 28.218079%)" offset="0.445313"/><stop stop-opacity="1" stop-color="rgb(47.331238%, 74.389648%, 28.28064%)" offset="0.453125"/><stop stop-opacity="1" stop-color="rgb(47.090149%, 74.264526%, 28.343201%)" offset="0.460938"/><stop stop-opacity="1" stop-color="rgb(46.847534%, 74.137878%, 28.405762%)" offset="0.46875"/><stop stop-opacity="1" stop-color="rgb(46.606445%, 74.012756%, 28.466797%)" offset="0.476563"/><stop stop-opacity="1" stop-color="rgb(46.365356%, 73.887634%, 28.529358%)" offset="0.484375"/><stop stop-opacity="1" stop-color="rgb(46.124268%, 73.762512%, 28.591919%)" offset="0.492188"/><stop stop-opacity="1" stop-color="rgb(45.883179%, 73.63739%, 28.65448%)" offset="0.5"/><stop stop-opacity="1" stop-color="rgb(45.64209%, 73.510742%, 28.717041%)" offset="0.507813"/><stop stop-opacity="1" stop-color="rgb(45.401001%, 73.38562%, 28.779602%)" offset="0.515625"/><stop stop-opacity="1" stop-color="rgb(45.159912%, 73.260498%, 28.840637%)" offset="0.523438"/><stop stop-opacity="1" stop-color="rgb(44.918823%, 73.135376%, 28.903198%)" offset="0.53125"/><stop stop-opacity="1" stop-color="rgb(44.677734%, 73.010254%, 28.965759%)" offset="0.539063"/><stop stop-opacity="1" stop-color="rgb(44.43512%, 72.885132%, 29.02832%)" offset="0.546875"/><stop stop-opacity="1" stop-color="rgb(44.194031%, 72.758484%, 29.090881%)" offset="0.554688"/><stop stop-opacity="1" stop-color="rgb(43.952942%, 72.633362%, 29.153442%)" offset="0.5625"/><stop stop-opacity="1" stop-color="rgb(43.711853%, 72.50824%, 29.214478%)" offset="0.570313"/><stop stop-opacity="1" stop-color="rgb(43.470764%, 72.383118%, 29.277039%)" offset="0.578125"/><stop stop-opacity="1" stop-color="rgb(43.229675%, 72.257996%, 29.3396%)" offset="0.585938"/><stop stop-opacity="1" stop-color="rgb(42.988586%, 72.131348%, 29.402161%)" offset="0.59375"/><stop stop-opacity="1" stop-color="rgb(42.747498%, 72.006226%, 29.464722%)" offset="0.601563"/><stop stop-opacity="1" stop-color="rgb(42.506409%, 71.881104%, 29.527283%)" offset="0.609375"/><stop stop-opacity="1" stop-color="rgb(42.26532%, 71.755981%, 29.588318%)" offset="0.617188"/><stop stop-opacity="1" stop-color="rgb(42.022705%, 71.630859%, 29.650879%)" offset="0.625"/><stop stop-opacity="1" stop-color="rgb(41.781616%, 71.504211%, 29.71344%)" offset="0.632812"/><stop stop-opacity="1" stop-color="rgb(41.540527%, 71.379089%, 29.776001%)" offset="0.640625"/><stop stop-opacity="1" stop-color="rgb(41.299438%, 71.253967%, 29.838562%)" offset="0.648438"/><stop stop-opacity="1" stop-color="rgb(41.05835%, 71.128845%, 29.901123%)" offset="0.65625"/><stop stop-opacity="1" stop-color="rgb(40.817261%, 71.003723%, 29.962158%)" offset="0.664063"/><stop stop-opacity="1" stop-color="rgb(40.576172%, 70.877075%, 30.024719%)" offset="0.671875"/><stop stop-opacity="1" stop-color="rgb(40.335083%, 70.751953%, 30.08728%)" offset="0.679688"/><stop stop-opacity="1" stop-color="rgb(40.093994%, 70.626831%, 30.149841%)" offset="0.6875"/><stop stop-opacity="1" stop-color="rgb(39.852905%, 70.501709%, 30.212402%)" offset="0.695313"/><stop stop-opacity="1" stop-color="rgb(39.610291%, 70.376587%, 30.274963%)" offset="0.703125"/><stop stop-opacity="1" stop-color="rgb(39.369202%, 70.249939%, 30.335999%)" offset="0.710938"/><stop stop-opacity="1" stop-color="rgb(39.128113%, 70.124817%, 30.39856%)" offset="0.71875"/><stop stop-opacity="1" stop-color="rgb(38.887024%, 69.999695%, 30.461121%)" offset="0.726563"/><stop stop-opacity="1" stop-color="rgb(38.645935%, 69.874573%, 30.523682%)" offset="0.734375"/><stop stop-opacity="1" stop-color="rgb(38.404846%, 69.749451%, 30.586243%)" offset="0.742188"/><stop stop-opacity="1" stop-color="rgb(38.163757%, 69.624329%, 30.648804%)" offset="0.75"/><stop stop-opacity="1" stop-color="rgb(37.922668%, 69.497681%, 30.709839%)" offset="0.757813"/><stop stop-opacity="1" stop-color="rgb(37.68158%, 69.372559%, 30.7724%)" offset="0.765625"/><stop stop-opacity="1" stop-color="rgb(37.440491%, 69.247437%, 30.834961%)" offset="0.773438"/><stop stop-opacity="1" stop-color="rgb(37.197876%, 69.122314%, 30.897522%)" offset="0.78125"/><stop stop-opacity="1" stop-color="rgb(36.956787%, 68.997192%, 30.960083%)" offset="0.789063"/><stop stop-opacity="1" stop-color="rgb(36.715698%, 68.870544%, 31.022644%)" offset="0.796875"/><stop stop-opacity="1" stop-color="rgb(36.474609%, 68.745422%, 31.083679%)" offset="0.804688"/><stop stop-opacity="1" stop-color="rgb(36.233521%, 68.6203%, 31.14624%)" offset="0.8125"/><stop stop-opacity="1" stop-color="rgb(35.992432%, 68.495178%, 31.208801%)" offset="0.820313"/><stop stop-opacity="1" stop-color="rgb(35.751343%, 68.370056%, 31.271362%)" offset="0.828125"/><stop stop-opacity="1" stop-color="rgb(35.510254%, 68.243408%, 31.333923%)" offset="0.835938"/><stop stop-opacity="1" stop-color="rgb(35.269165%, 68.118286%, 31.396484%)" offset="0.84375"/><stop stop-opacity="1" stop-color="rgb(35.028076%, 67.993164%, 31.45752%)" offset="0.851563"/><stop stop-opacity="1" stop-color="rgb(34.785461%, 67.868042%, 31.520081%)" offset="0.859375"/><stop stop-opacity="1" stop-color="rgb(34.544373%, 67.74292%, 31.582642%)" offset="0.867188"/><stop stop-opacity="1" stop-color="rgb(34.303284%, 67.616272%, 31.645203%)" offset="0.875"/><stop stop-opacity="1" stop-color="rgb(34.062195%, 67.49115%, 31.707764%)" offset="0.882812"/><stop stop-opacity="1" stop-color="rgb(33.821106%, 67.366028%, 31.770325%)" offset="0.890625"/><stop stop-opacity="1" stop-color="rgb(33.580017%, 67.240906%, 31.83136%)" offset="0.898438"/><stop stop-opacity="1" stop-color="rgb(33.338928%, 67.115784%, 31.893921%)" offset="0.90625"/><stop stop-opacity="1" stop-color="rgb(33.097839%, 66.989136%, 31.956482%)" offset="0.914063"/><stop stop-opacity="1" stop-color="rgb(32.85675%, 66.864014%, 32.019043%)" offset="0.921875"/><stop stop-opacity="1" stop-color="rgb(32.614136%, 66.738892%, 32.081604%)" offset="0.929688"/><stop stop-opacity="1" stop-color="rgb(32.373047%, 66.61377%, 32.144165%)" offset="0.9375"/><stop stop-opacity="1" stop-color="rgb(32.131958%, 66.488647%, 32.2052%)" offset="0.945313"/><stop stop-opacity="1" stop-color="rgb(31.890869%, 66.363525%, 32.267761%)" offset="0.953125"/><stop stop-opacity="1" stop-color="rgb(31.64978%, 66.236877%, 32.330322%)" offset="0.960938"/><stop stop-opacity="1" stop-color="rgb(31.408691%, 66.111755%, 32.392883%)" offset="0.96875"/><stop stop-opacity="1" stop-color="rgb(31.143188%, 65.974426%, 32.461548%)" offset="1"/></linearGradient><clipPath id="ef666f5533"><path d="M 32 42 L 65 42 L 65 60.226562 L 32 60.226562 Z M 32 42 " clip-rule="nonzero"/></clipPath><clipPath id="dd4e28c1a7"><path d="M 22 31 L 75 31 L 75 60.226562 L 22 60.226562 Z M 22 31 " clip-rule="nonzero"/></clipPath><clipPath id="8bdf2250ff"><path d="M 23 48 L 75 48 L 75 60.226562 L 23 60.226562 Z M 23 48 " clip-rule="nonzero"/></clipPath><clipPath id="892fd656d8"><path d="M 22 22 L 76 22 L 76 60.226562 L 22 60.226562 Z M 22 22 " clip-rule="nonzero"/></clipPath><clipPath id="c2d97cc995"><path d="M 23 15.226562 L 67 15.226562 L 67 45 L 23 45 Z M 23 15.226562 " clip-rule="nonzero"/></clipPath><clipPath id="60eedf69e3"><path d="M 23 15.226562 L 32 15.226562 L 32 24 L 23 24 Z M 23 15.226562 " clip-rule="nonzero"/></clipPath></defs><g fill="#009245" fill-opacity="1"><g transform="translate(76.860619, 50.033407)"><g><path d="M 6.578125 0 L 4.507812 -13.878906 L 4.386719 -14.8125 L 4.207031 -14.8125 L 4.207031 0 L 1.203125 0 L 1.203125 -22.082031 L 5.167969 -22.082031 L 7.089844 -11.988281 L 7.242188 -10.816406 L 7.300781 -10.816406 L 7.449219 -11.988281 L 9.375 -22.082031 L 13.339844 -22.082031 L 13.339844 0 L 10.335938 0 L 10.335938 -14.8125 L 10.15625 -14.8125 L 10.035156 -13.878906 L 7.960938 0 Z M 6.578125 0 "/></g></g></g><g fill="#009245" fill-opacity="1"><g transform="translate(91.397659, 50.033407)"><g><path d="M 1.203125 -22.082031 L 8.621094 -22.082031 L 8.621094 -18.75 L 4.445312 -18.75 L 4.445312 -12.949219 L 7.449219 -12.949219 L 7.449219 -9.402344 L 4.445312 -9.402344 L 4.445312 -3.335938 L 8.621094 -3.335938 L 8.621094 0 L 1.203125 0 Z M 1.203125 -22.082031 "/></g></g></g><g fill="#009245" fill-opacity="1"><g transform="translate(100.61846, 50.033407)"><g><path d="M 6.578125 0 L 4.507812 -13.878906 L 4.386719 -14.8125 L 4.207031 -14.8125 L 4.207031 0 L 1.203125 0 L 1.203125 -22.082031 L 5.167969 -22.082031 L 7.089844 -11.988281 L 7.242188 -10.816406 L 7.300781 -10.816406 L 7.449219 -11.988281 L 9.375 -22.082031 L 13.339844 -22.082031 L 13.339844 0 L 10.335938 0 L 10.335938 -14.8125 L 10.15625 -14.8125 L 10.035156 -13.878906 L 7.960938 0 Z M 6.578125 0 "/></g></g></g><g fill="#009245" fill-opacity="1"><g transform="translate(115.1555, 50.033407)"><g><path d="M 1.203125 -22.082031 L 8.621094 -22.082031 L 8.621094 -18.75 L 4.445312 -18.75 L 4.445312 -12.949219 L 7.449219 -12.949219 L 7.449219 -9.402344 L 4.445312 -9.402344 L 4.445312 -3.335938 L 8.621094 -3.335938 L 8.621094 0 L 1.203125 0 Z M 1.203125 -22.082031 "/></g></g></g><g fill="#009245" fill-opacity="1"><g transform="translate(124.376301, 50.033407)"><g><path d="M 0.300781 -3.484375 L 5.378906 -18.867188 L 1.023438 -18.867188 L 1.023438 -22.082031 L 8.894531 -22.082031 L 8.894531 -18.867188 L 3.726562 -3.214844 L 8.894531 -3.214844 L 8.894531 0 L 0.300781 0 Z M 0.300781 -3.484375 "/></g></g></g><g fill="#009245" fill-opacity="1"><g transform="translate(133.567074, 50.033407)"><g><path d="M 1.203125 -22.082031 L 4.445312 -22.082031 L 4.445312 0 L 1.203125 0 Z M 1.203125 -22.082031 "/></g></g></g><g fill="#009245" fill-opacity="1"><g transform="translate(139.213691, 50.033407)"><g><path d="M 4.625 -11.507812 L 4.355469 -12.527344 L 4.175781 -12.527344 L 4.175781 0 L 1.203125 0 L 1.203125 -22.082031 L 4.085938 -22.082031 L 7.242188 -10.574219 L 7.511719 -9.554688 L 7.691406 -9.554688 L 7.691406 -22.082031 L 10.664062 -22.082031 L 10.664062 0 L 7.78125 0 Z M 4.625 -11.507812 "/></g></g></g><g fill="#009245" fill-opacity="1"><g transform="translate(151.077597, 50.033407)"><g><path d="M 1.203125 -22.082031 L 8.621094 -22.082031 L 8.621094 -18.75 L 4.445312 -18.75 L 4.445312 -12.949219 L 7.449219 -12.949219 L 7.449219 -9.402344 L 4.445312 -9.402344 L 4.445312 -3.335938 L 8.621094 -3.335938 L 8.621094 0 L 1.203125 0 Z M 1.203125 -22.082031 "/></g></g></g><g fill="#152029" fill-opacity="1"><g transform="translate(77.063449, 64.761367)"><g><path d="M 0.484375 -6.578125 L 2.515625 -6.578125 C 3.128906 -6.578125 3.617188 -6.441406 3.984375 -6.171875 C 4.359375 -5.910156 4.546875 -5.488281 4.546875 -4.90625 C 4.546875 -4.238281 4.269531 -3.765625 3.71875 -3.484375 C 4.65625 -3.328125 5.125 -2.773438 5.125 -1.828125 C 5.125 -1.273438 4.929688 -0.832031 4.546875 -0.5 C 4.160156 -0.164062 3.632812 0 2.96875 0 L 0.484375 0 Z M 1.96875 -4 L 2.09375 -4 C 2.425781 -4 2.675781 -4.054688 2.84375 -4.171875 C 3.007812 -4.285156 3.09375 -4.476562 3.09375 -4.75 C 3.09375 -5.195312 2.757812 -5.421875 2.09375 -5.421875 L 1.96875 -5.421875 Z M 1.96875 -1.15625 L 2.453125 -1.15625 C 3.179688 -1.15625 3.546875 -1.398438 3.546875 -1.890625 C 3.546875 -2.179688 3.453125 -2.390625 3.265625 -2.515625 C 3.085938 -2.640625 2.816406 -2.703125 2.453125 -2.703125 L 1.96875 -2.703125 Z M 1.96875 -1.15625 "/></g></g></g><g fill="#152029" fill-opacity="1"><g transform="translate(83.745599, 64.761367)"><g><path d="M -0.234375 -6.578125 L 1.5625 -6.578125 L 2.9375 -4.46875 L 4.296875 -6.578125 L 6.109375 -6.578125 L 3.6875 -2.953125 L 3.6875 0 L 2.1875 0 L 2.1875 -2.953125 Z M -0.234375 -6.578125 "/></g></g></g><g fill="#152029" fill-opacity="1"><g transform="translate(90.985928, 64.761367)"><g/></g></g><g fill="#152029" fill-opacity="1"><g transform="translate(94.534318, 64.761367)"><g><path d="M 0.484375 -6.578125 L 2.515625 -6.578125 C 3.128906 -6.578125 3.617188 -6.441406 3.984375 -6.171875 C 4.359375 -5.910156 4.546875 -5.488281 4.546875 -4.90625 C 4.546875 -4.238281 4.269531 -3.765625 3.71875 -3.484375 C 4.65625 -3.328125 5.125 -2.773438 5.125 -1.828125 C 5.125 -1.273438 4.929688 -0.832031 4.546875 -0.5 C 4.160156 -0.164062 3.632812 0 2.96875 0 L 0.484375 0 Z M 1.96875 -4 L 2.09375 -4 C 2.425781 -4 2.675781 -4.054688 2.84375 -4.171875 C 3.007812 -4.285156 3.09375 -4.476562 3.09375 -4.75 C 3.09375 -5.195312 2.757812 -5.421875 2.09375 -5.421875 L 1.96875 -5.421875 Z M 1.96875 -1.15625 L 2.453125 -1.15625 C 3.179688 -1.15625 3.546875 -1.398438 3.546875 -1.890625 C 3.546875 -2.179688 3.453125 -2.390625 3.265625 -2.515625 C 3.085938 -2.640625 2.816406 -2.703125 2.453125 -2.703125 L 1.96875 -2.703125 Z M 1.96875 -1.15625 "/></g></g></g><g fill="#152029" fill-opacity="1"><g transform="translate(101.216467, 64.761367)"><g><path d="M 4.234375 -6.578125 L 4.234375 -5.265625 L 1.96875 -5.265625 L 1.96875 -3.953125 L 4.140625 -3.953125 L 4.140625 -2.640625 L 1.96875 -2.640625 L 1.96875 -1.3125 L 4.234375 -1.3125 L 4.234375 0 L 0.484375 0 L 0.484375 -6.578125 Z M 4.234375 -6.578125 "/></g></g></g><g fill="#152029" fill-opacity="1"><g transform="translate(107.212863, 64.761367)"><g><path d="M 3.8125 -6.578125 L 6.46875 0 L 4.859375 0 L 4.375 -1.3125 L 1.875 -1.3125 L 1.390625 0 L -0.21875 0 L 2.4375 -6.578125 Z M 3.859375 -2.625 L 3.125 -4.546875 L 3.109375 -4.546875 L 2.375 -2.625 Z M 3.859375 -2.625 "/></g></g></g><g clip-path="url(#debdf9015c)"><g clip-path="url(#c556221e77)"><path fill="url(#b67df96ce0)" d="M 21.597656 60.226562 L 21.597656 21.910156 L 75.113281 21.910156 L 75.113281 60.226562 Z M 21.597656 60.226562 " fill-rule="nonzero"/></g></g><path fill="#ffffff" d="M 68.882812 25.433594 C 68.882812 25.433594 63.070312 23.886719 60.308594 31.234375 C 57.878906 30.199219 53.757812 28.644531 48.183594 28.390625 C 49.222656 27.859375 55.253906 28.050781 59.628906 29.550781 C 60.535156 27.847656 63.335938 22.960938 68.882812 25.433594 Z M 28.703125 33.296875 C 27.597656 24.472656 36.414062 22.996094 36.414062 22.996094 C 26.972656 22.226562 27.589844 32.5625 28.703125 33.296875 Z M 28.703125 33.296875 " fill-opacity="1" fill-rule="nonzero"/><g clip-path="url(#ef666f5533)"><path fill="#ffffff" d="M 64.867188 60.226562 L 32.441406 60.226562 C 32.410156 59.148438 32.441406 56.0625 33.527344 52.765625 C 36.933594 51.433594 46.183594 46.898438 47.332031 42.25 C 47.832031 42.238281 49.425781 42.417969 49.957031 42.441406 C 64.78125 43.121094 65.324219 55.085938 64.867188 60.226562 Z M 49.550781 43.035156 C 49.167969 42.375 48.414062 44.484375 49.550781 44.175781 C 50.6875 43.867188 49.933594 43.695312 49.550781 43.035156 Z M 49.550781 43.035156 " fill-opacity="1" fill-rule="nonzero"/></g><g clip-path="url(#dd4e28c1a7)"><path fill="#4fa853" d="M 23.777344 54.859375 C 23.628906 54.691406 23.628906 54.007812 23.476562 53.828125 C 23.445312 53.753906 23.414062 53.648438 23.394531 53.53125 C 22.023438 48.65625 23.933594 45.058594 23.933594 45.058594 C 23.933594 45.058594 26.355469 58.734375 44.125 58.875 C 45.472656 58.839844 46.90625 58.765625 48.425781 58.640625 C 66.875 57.054688 68.636719 40.085938 68.222656 38.386719 C 70.769531 36.875 72.375 34.011719 73.492188 31.851562 C 73.492188 31.851562 74.636719 33.851562 72.609375 36.222656 C 71.972656 36.96875 71.558594 37.789062 71.046875 38.171875 C 71.546875 38.671875 72.660156 39.703125 73.234375 41.640625 C 77.003906 54.402344 72.621094 60.226562 72.621094 60.226562 L 26.613281 60.226562 C 25.050781 58.363281 24.179688 56.457031 23.777344 54.859375 Z M 48.703125 41.480469 C 48.703125 41.480469 48.117188 40.203125 44.550781 43.046875 C 40.992188 45.886719 33.441406 49.667969 31.867188 50.453125 C 30.296875 51.242188 30.019531 53.765625 32.601562 53 C 35.183594 52.230469 49.210938 45.761719 48.703125 41.480469 Z M 48.703125 41.480469 " fill-opacity="0.498" fill-rule="nonzero"/></g><g clip-path="url(#8bdf2250ff)"><path fill="#9cd03f" d="M 23.53125 48.324219 C 23.53125 48.324219 24.316406 56.710938 30.902344 60.226562 C 30.0625 60.226562 27.863281 60.226562 27.863281 60.226562 C 27.863281 60.226562 22.375 56.371094 23.53125 48.324219 Z M 74.277344 48.324219 C 74.277344 48.324219 74.285156 56.246094 68.882812 60.226562 C 71.707031 60.226562 72.609375 60.226562 72.609375 60.226562 C 72.609375 60.226562 76.1875 55.777344 74.277344 48.324219 Z M 74.277344 48.324219 " fill-opacity="1" fill-rule="nonzero"/></g><g clip-path="url(#892fd656d8)"><path fill="#05261b" d="M 45.164062 23.953125 C 45.675781 22.996094 45.972656 22.453125 46.960938 22.78125 C 48.054688 23.144531 47.3125 25.898438 44.359375 25.582031 C 43.6875 25.132812 44.644531 24.910156 45.164062 23.953125 Z M 58.058594 26.570312 C 58.8125 26.285156 57.929688 25.859375 57.632812 24.804688 C 57.347656 23.75 57.175781 23.152344 56.136719 23.261719 C 55 23.378906 55.117188 26.21875 58.058594 26.570312 Z M 54.542969 35.042969 C 51.929688 34.425781 52.929688 35.925781 49.847656 35.757812 C 48.054688 35.660156 48.054688 33.871094 45.484375 34.574219 C 44.15625 34.9375 43.191406 37.363281 43.359375 39.820312 C 38.582031 41.34375 31.847656 45.695312 31.347656 45.972656 C 28.554688 47.472656 30.882812 47.113281 31.347656 46.75 C 34.089844 46.070312 45.367188 38.183594 46.9375 40.652344 C 48.710938 43.429688 41.808594 48.113281 37.074219 50.464844 C 32.335938 52.816406 31.953125 53.425781 33.089844 53.09375 C 41.097656 49.996094 44.484375 47.015625 46.492188 44.78125 C 47.226562 45.113281 48.105469 45.3125 49.160156 45.324219 C 56.804688 45.429688 57.132812 35.648438 54.542969 35.042969 Z M 33.441406 28.65625 C 32.921875 28.796875 34.714844 30.039062 36.914062 31.082031 C 34.746094 30.839844 32.515625 32.074219 32.71875 32.605469 C 33.058594 32.859375 39.398438 32.339844 39.417969 32.050781 C 39.695312 31.753906 36.964844 27.699219 33.441406 28.65625 Z M 68.308594 30.988281 C 68.804688 31.167969 66.925781 32.253906 64.632812 33.105469 C 66.820312 33.050781 68.933594 34.480469 68.691406 34.988281 C 68.328125 35.214844 62.050781 34.148438 62.0625 33.863281 C 61.808594 33.542969 64.878906 29.730469 68.308594 30.988281 Z M 70.804688 38.234375 C 70.867188 38.300781 70.921875 38.351562 70.941406 38.386719 C 71.109375 38.660156 72.355469 40.609375 73.203125 42.910156 C 74.253906 45.78125 74.351562 48.089844 74.46875 50.539062 C 74.660156 54.753906 73.480469 58.160156 72.171875 60.191406 L 73.574219 60.191406 C 74.488281 58.4375 75.371094 55.53125 75.390625 50.828125 C 75.445312 42.195312 71.578125 37.9375 71.578125 37.9375 C 72.332031 37.308594 72.960938 36.554688 73.4375 35.691406 C 74.457031 33.851562 74.691406 31.722656 74.105469 29.699219 C 73.523438 27.675781 72.195312 26.007812 70.347656 24.996094 C 68.507812 23.972656 66.386719 23.738281 64.367188 24.324219 C 62.347656 24.910156 60.683594 26.25 59.664062 28.09375 C 59.503906 28.378906 59.355469 28.667969 59.25 28.953125 C 59.195312 28.945312 59.140625 28.921875 59.078125 28.914062 C 52.015625 26.507812 44.898438 27.601562 43.222656 27.910156 C 43.210938 27.890625 43.210938 27.878906 43.199219 27.859375 C 42 23.675781 37.625 21.269531 33.449219 22.472656 C 31.433594 23.058594 29.765625 24.398438 28.746094 26.242188 C 27.726562 28.082031 27.492188 30.210938 28.078125 32.234375 C 28.332031 33.085938 28.703125 33.882812 29.214844 34.597656 C 27.707031 35.640625 24.167969 38.789062 22.914062 45.761719 C 21.886719 51.488281 23.234375 55.648438 24.605469 57.882812 C 25.230469 58.90625 25.859375 59.648438 26.429688 60.214844 L 27.875 60.214844 C 27.269531 59.714844 26.21875 58.617188 25.335938 57.191406 C 24.019531 55.085938 22.851562 51.359375 23.851562 45.867188 C 25.15625 38.652344 28.714844 35.820312 29.894531 35.074219 C 30.339844 35.339844 30.796875 35.703125 30.890625 35.574219 C 30.996094 35.4375 30.105469 34.445312 29.988281 34.328125 C 29.46875 33.628906 29.074219 32.851562 28.832031 32.007812 C 27.746094 28.242188 30.03125 24.238281 33.78125 23.152344 C 34.585938 22.929688 35.4375 22.835938 36.222656 22.878906 C 39.144531 23.058594 41.617188 25.101562 42.46875 28.0625 C 42.5 28.1875 42.5625 28.445312 42.5625 28.445312 C 42.617188 28.65625 42.828125 28.785156 43.03125 28.730469 C 43.117188 28.710938 51.558594 26.941406 58.867188 29.636719 C 58.886719 29.636719 58.898438 29.648438 58.917969 29.648438 C 59.003906 29.667969 59.089844 29.699219 59.183594 29.730469 C 59.25 29.753906 59.3125 29.785156 59.386719 29.796875 C 59.578125 29.847656 59.789062 29.742188 59.855469 29.550781 C 59.96875 29.210938 60.140625 28.828125 60.351562 28.453125 C 61.277344 26.785156 62.550781 25.625 64.367188 25.101562 C 66.195312 24.570312 68.296875 24.78125 69.953125 25.699219 C 71.609375 26.613281 72.621094 27.945312 73.152344 29.765625 C 73.679688 31.582031 73.679688 33.667969 72.777344 35.320312 C 72.355469 36.097656 71.789062 36.777344 71.109375 37.339844 C 71.078125 37.363281 70.058594 38.117188 69.878906 38.386719 C 69.773438 38.542969 70.304688 38.40625 70.804688 38.234375 Z M 70.804688 38.234375 " fill-opacity="1" fill-rule="nonzero"/></g><g clip-path="url(#c2d97cc995)"><path fill="#e0074c" d="M 40.226562 36.097656 C 40.164062 36.894531 38.707031 37.4375 36.964844 37.308594 C 35.226562 37.183594 33.867188 36.425781 33.929688 35.617188 C 33.992188 34.820312 35.449219 34.277344 37.191406 34.402344 C 38.929688 34.53125 40.289062 35.296875 40.226562 36.097656 Z M 63.039062 36.363281 C 61.296875 36.234375 59.84375 36.777344 59.777344 37.574219 C 59.714844 38.375 61.085938 39.128906 62.816406 39.269531 C 64.558594 39.394531 66.011719 38.851562 66.078125 38.054688 C 66.140625 37.246094 64.78125 36.492188 63.039062 36.363281 Z M 46.949219 44.144531 C 46.949219 44.144531 48.382812 44.8125 49.828125 44.632812 C 54.523438 44.058594 55.320312 40.152344 55.320312 38.851562 C 53.820312 38.542969 50.636719 38.226562 47.011719 39.90625 C 49.125 41.289062 46.949219 44.144531 46.949219 44.144531 Z M 28.925781 22.003906 C 29.066406 22.152344 29.289062 22.1875 29.457031 22.078125 C 29.648438 21.953125 29.710938 21.695312 29.585938 21.503906 L 26.175781 16.097656 C 26.144531 16.054688 26.113281 16 26.070312 15.960938 C 25.707031 15.566406 25.09375 15.535156 24.699219 15.894531 C 24.308594 16.257812 24.273438 16.875 24.636719 17.269531 Z M 30.242188 21.003906 C 30.296875 21.207031 30.5 21.34375 30.710938 21.3125 C 30.945312 21.28125 31.09375 21.066406 31.0625 20.832031 L 30.519531 17.097656 C 30.519531 17.078125 30.507812 17.046875 30.507812 17.023438 C 30.414062 16.683594 30.0625 16.480469 29.722656 16.566406 C 29.382812 16.660156 29.183594 17.011719 29.265625 17.355469 Z M 28.480469 23.121094 C 28.597656 22.929688 28.542969 22.664062 28.34375 22.546875 L 24.730469 20.300781 C 24.710938 20.292969 24.699219 20.28125 24.679688 20.269531 C 24.371094 20.121094 24 20.25 23.839844 20.558594 C 23.691406 20.867188 23.816406 21.238281 24.125 21.398438 L 27.9375 23.28125 C 28.128906 23.367188 28.375 23.304688 28.480469 23.121094 Z M 28.480469 23.121094 " fill-opacity="1" fill-rule="nonzero"/></g><g clip-path="url(#60eedf69e3)"><path fill="#05261b" d="M 28.320312 23.601562 C 28.214844 23.601562 28.035156 23.570312 27.9375 23.515625 L 24.082031 21.683594 C 23.617188 21.453125 23.4375 20.898438 23.660156 20.429688 C 23.765625 20.207031 23.957031 20.035156 24.199219 19.960938 C 24.433594 19.875 24.6875 19.898438 24.914062 20.003906 C 24.945312 20.015625 24.964844 20.035156 24.988281 20.046875 L 28.597656 22.386719 C 28.9375 22.601562 29.054688 22.960938 28.839844 23.304688 C 28.691406 23.527344 28.566406 23.601562 28.320312 23.601562 Z M 24.496094 20.535156 C 24.464844 20.535156 24.433594 20.546875 24.390625 20.558594 C 24.316406 20.589844 24.242188 20.640625 24.210938 20.71875 C 24.136719 20.875 24.199219 21.058594 24.347656 21.144531 L 28.269531 23.070312 C 28.320312 23.089844 28.375 23.089844 28.394531 23.039062 C 28.417969 22.984375 28.40625 22.929688 28.351562 22.898438 L 24.65625 20.578125 C 24.648438 20.578125 24.636719 20.566406 24.625 20.566406 C 24.59375 20.546875 24.539062 20.535156 24.496094 20.535156 Z M 29.339844 22.441406 C 29.140625 22.441406 28.980469 22.34375 28.839844 22.195312 L 24.496094 17.511719 C 24.019531 16.992188 24.0625 16.171875 24.582031 15.703125 C 25.101562 15.226562 25.921875 15.265625 26.386719 15.789062 C 26.453125 15.851562 26.496094 15.917969 26.515625 15.960938 L 29.882812 21.460938 C 30.09375 21.800781 30.019531 22.1875 29.734375 22.34375 C 29.617188 22.417969 29.46875 22.441406 29.339844 22.441406 Z M 25.441406 15.980469 C 25.285156 15.980469 25.125 16.035156 24.996094 16.152344 C 24.730469 16.394531 24.710938 16.8125 24.953125 17.085938 L 29.277344 21.800781 C 29.308594 21.84375 29.351562 21.855469 29.382812 21.835938 C 29.4375 21.800781 29.425781 21.761719 29.394531 21.707031 L 25.996094 16.277344 C 25.972656 16.246094 25.953125 16.214844 25.933594 16.183594 C 25.792969 16.054688 25.625 15.980469 25.441406 15.980469 Z M 30.730469 21.644531 C 30.402344 21.644531 30.222656 21.417969 30.136719 21.101562 L 29.054688 17.460938 C 28.917969 16.949219 29.222656 16.425781 29.722656 16.289062 C 30.234375 16.152344 30.753906 16.460938 30.890625 16.960938 C 30.902344 16.992188 30.914062 17.035156 30.914062 17.066406 L 31.347656 20.800781 C 31.378906 20.992188 31.328125 21.207031 31.222656 21.375 C 31.136719 21.535156 31.03125 21.609375 30.839844 21.644531 C 30.804688 21.644531 30.773438 21.644531 30.730469 21.644531 Z M 29.976562 16.875 C 29.945312 16.875 29.925781 16.875 29.894531 16.886719 C 29.808594 16.90625 29.734375 16.960938 29.691406 17.046875 C 29.648438 17.121094 29.636719 17.214844 29.660156 17.300781 C 29.660156 17.300781 30.648438 20.929688 30.648438 20.949219 C 30.65625 21.003906 30.710938 21.035156 30.753906 21.027344 C 30.796875 21.015625 30.804688 21.003906 30.816406 20.992188 C 30.828125 20.984375 30.839844 20.949219 30.828125 20.917969 L 30.308594 17.171875 C 30.308594 17.160156 30.308594 17.152344 30.296875 17.128906 C 30.253906 16.980469 30.125 16.875 29.976562 16.875 Z M 29.976562 16.875 " fill-opacity="1" fill-rule="nonzero"/></g></svg>